<?xml version="1.0" encoding="utf-8"?>
<!-- Generator: Adobe Illustrator 16.0.0, SVG Export Plug-In . SVG Version: 6.00 Build 0)  -->
<!DOCTYPE svg PUBLIC "-//W3C//DTD SVG 1.1//EN" "http://www.w3.org/Graphics/SVG/1.1/DTD/svg11.dtd">
<svg version="1.1" id="Layer_1" xmlns="http://www.w3.org/2000/svg" xmlns:xlink="http://www.w3.org/1999/xlink" x="0px" y="0px"
	 width="100px" height="100px" viewBox="0 0 100 100" enable-background="new 0 0 100 100" xml:space="preserve">
<g>
	<g>
		<path fill="#F15A29" stroke="#FF6633" stroke-width="0.25" stroke-miterlimit="10" d="M70.684,40.228
			c-0.17,0.593-0.279,1.214-0.529,1.772c-0.352,0.8-0.805,1.556-1.221,2.328c-0.055,0.104-0.137,0.198-0.219,0.286
			c-0.549,0.58-1.268,0.591-1.766-0.03c-0.322-0.399-0.551-0.871-0.814-1.313c-0.477-0.789-0.947-1.58-1.424-2.369
			c-0.037-0.064-0.09-0.124-0.143-0.198c-0.424,0.316-0.691,0.734-0.922,1.179c-0.576,1.118-0.908,2.321-1.238,3.524
			c-0.061,0.223-0.119,0.444-0.197,0.728c-0.158-0.26-0.283-0.479-0.424-0.687c-0.248-0.363-0.51-0.714-0.754-1.079
			c-0.057-0.085-0.111-0.209-0.096-0.304c0.275-1.599,0.844-3.051,2.137-4.124c0.201-0.168,0.434-0.303,0.705-0.49
			c-0.545-0.643-1.055-1.305-1.629-1.903c-0.426-0.443-0.922-0.828-1.426-1.186c-0.264-0.189-0.604-0.284-0.922-0.381
			c-0.52-0.16-0.904,0.069-1.188,0.498c-0.365,0.559-0.561,1.189-0.646,1.837c-0.139,1.065-0.217,2.139-0.318,3.21
			c-0.01,0.089-0.002,0.182-0.002,0.279c-0.422-0.296-0.805-0.602-1.221-0.851c-1.389-0.832-2.91-1.283-4.502-1.491
			c-2.229-0.289-4.417-0.105-6.546,0.65c-1.062,0.379-2.058,0.877-2.9,1.646c-0.023,0.021-0.056,0.033-0.102,0.061
			c-0.027-0.547-0.043-1.076-0.084-1.604c-0.079-1.041-0.203-2.073-0.564-3.062c-0.076-0.202-0.168-0.399-0.277-0.583
			c-0.36-0.602-0.771-0.753-1.443-0.552c-0.547,0.165-1.007,0.479-1.438,0.843c-0.837,0.703-1.981,2.05-2.631,3.087
			c0.26,0.174,0.533,0.333,0.778,0.525c0.908,0.713,1.429,1.687,1.789,2.755c0.145,0.429,0.235,0.878,0.32,1.324
			c0.023,0.114-0.043,0.265-0.11,0.372c-0.321,0.498-0.658,0.987-0.988,1.48c-0.047,0.068-0.09,0.139-0.152,0.233
			c-0.228-0.787-0.43-1.539-0.664-2.283c-0.269-0.855-0.567-1.701-1.081-2.446c-0.187-0.271-0.427-0.503-0.684-0.798
			c-0.405,0.687-0.772,1.298-1.131,1.914c-0.233,0.401-0.45,0.814-0.688,1.214c-0.209,0.356-0.481,0.658-0.899,0.766
			c-0.505,0.128-0.92-0.075-1.198-0.473c-0.894-1.281-1.614-2.644-1.865-4.213c-0.011-0.066-0.034-0.132-0.051-0.196
			c0-0.188,0-0.38,0-0.569c0.013-0.03,0.038-0.06,0.04-0.092c0.062-0.635,0.408-1.098,0.889-1.486
			c0.704-0.57,1.508-0.96,2.343-1.287c0.435-0.169,0.879-0.31,1.317-0.464c0.007,0.021,0.015,0.041,0.023,0.062
			c-0.098,0.05-0.196,0.097-0.294,0.15c-0.666,0.375-1.347,0.728-1.994,1.135c-0.595,0.372-0.852,0.95-0.716,1.646
			c0.125,0.631,0.274,1.264,0.479,1.872c0.227,0.675,0.581,0.732,1.057,0.188c0.374-0.426,0.71-0.887,1.042-1.347
			c0.702-0.98,1.379-1.979,2.257-2.818c1.114-1.063,2.357-1.902,3.891-2.229c0.259-0.057,0.523-0.094,0.784-0.138
			c0.276,0,0.553,0,0.827,0c0.084,0.018,0.165,0.044,0.249,0.055c1.24,0.164,1.976,0.854,2.12,2.093
			c0.073,0.62,0.033,1.254,0.029,1.88c-0.003,0.27-0.045,0.539-0.07,0.831c4.198-2.841,8.39-2.942,12.624-0.113
			c-0.008-0.15-0.027-0.28-0.018-0.407c0.035-0.616,0.018-1.242,0.131-1.845c0.213-1.11,0.811-1.953,1.947-2.292
			c0.365-0.109,0.758-0.137,1.139-0.202c0.033,0,0.066,0,0.104,0c0.039,0.011,0.08,0.03,0.123,0.032
			c1.398,0.059,2.584,0.646,3.668,1.485c1.182,0.913,2.08,2.073,2.932,3.281c0.426,0.604,0.865,1.202,1.346,1.765
			c0.436,0.511,0.799,0.44,1.012-0.19c0.203-0.6,0.352-1.223,0.48-1.843c0.16-0.749-0.125-1.338-0.762-1.75
			c-0.387-0.25-0.787-0.485-1.193-0.711c-0.344-0.19-0.699-0.355-1.049-0.532c0.053-0.028,0.096-0.026,0.135-0.015
			c0.934,0.281,1.842,0.626,2.686,1.116c0.834,0.483,1.602,1.026,1.791,2.066C70.684,39.71,70.684,39.969,70.684,40.228z"/>
		<path fill="#F15A29" stroke="#FF6633" stroke-width="0.25" stroke-miterlimit="10" d="M50.323,57.882
			c-0.121,0.348-0.217,0.648-0.331,0.944c-0.53,1.387-1.304,2.601-2.543,3.464c-1.472,1.024-3.125,1.275-4.859,1.021
			c-2.086-0.304-3.437-1.541-4.147-3.478c-0.69-1.879-0.743-3.808-0.274-5.746c0.068-0.281,0.199-0.55,0.325-0.812
			c0.102-0.213,0.294-0.296,0.519-0.204c0.206,0.085,0.172,0.273,0.146,0.447c-0.195,1.338-0.269,2.676,0.038,4.007
			c0.29,1.249,0.875,2.3,2.033,2.948c0.869,0.486,1.819,0.619,2.797,0.573c2.153-0.1,3.554-1.273,4.441-3.156
			c0.594-1.26,0.867-2.606,1.02-3.982c0.026-0.257,0.021-0.519,0.07-0.771c0.059-0.308-0.034-0.528-0.235-0.768
			c-0.394-0.464-0.766-0.952-1.101-1.46c-0.139-0.21-0.201-0.494-0.224-0.752c-0.033-0.39,0.195-0.67,0.568-0.794
			c0.073-0.023,0.149-0.053,0.226-0.053c1.024-0.002,2.049-0.037,3.072,0.018c0.752,0.042,0.93,0.668,0.707,1.269
			c-0.138,0.368-0.4,0.698-0.634,1.022c-0.236,0.327-0.511,0.627-0.759,0.947c-0.059,0.074-0.105,0.183-0.101,0.272
			c0.091,1.74,0.354,3.445,1.097,5.041c0.582,1.258,1.422,2.29,2.752,2.804c1.418,0.551,2.857,0.519,4.258-0.068
			c1.328-0.559,1.996-1.662,2.297-3.021c0.287-1.297,0.209-2.602,0.027-3.906c-0.016-0.1-0.049-0.21-0.025-0.306
			c0.025-0.113,0.082-0.288,0.156-0.304c0.131-0.026,0.357,0.003,0.408,0.088c0.176,0.291,0.348,0.604,0.426,0.93
			c0.5,2.101,0.428,4.181-0.445,6.175c-0.891,2.034-2.51,3.036-4.711,3.118c-1.578,0.061-3.049-0.282-4.324-1.256
			c-1.176-0.896-1.908-2.108-2.408-3.477C50.497,58.418,50.422,58.175,50.323,57.882z"/>
		<path fill="#F15A29" stroke="#FF6633" stroke-width="0.25" stroke-miterlimit="10" d="M43.247,50.215
			c-0.926,0.014-1.674-0.727-1.685-1.662c-0.01-0.931,0.727-1.69,1.648-1.703c0.932-0.011,1.697,0.723,1.715,1.644
			C44.944,49.447,44.212,50.199,43.247,50.215z"/>
		<path fill="#F15A29" stroke="#FF6633" stroke-width="0.25" stroke-miterlimit="10" d="M57.43,50.214
			c-0.947,0.01-1.697-0.72-1.707-1.666c-0.01-0.929,0.729-1.688,1.654-1.699c0.936-0.01,1.703,0.739,1.713,1.672
			C59.1,49.446,58.355,50.202,57.43,50.214z"/>
		<path fill="#F15A29" stroke="#FF6633" stroke-width="0.25" stroke-miterlimit="10" d="M50.209,65.255
			c-1.405-0.058-2.377-0.711-3.062-1.821c-0.046-0.076-0.053-0.235-0.004-0.301c0.109-0.139,0.241-0.037,0.366,0.027
			c1.435,0.764,2.911,0.95,4.431,0.269c0.277-0.125,0.521-0.329,0.791-0.478c0.082-0.047,0.201-0.032,0.303-0.045
			c0.012,0.103,0.064,0.227,0.027,0.303c-0.48,0.964-1.169,1.698-2.26,1.958C50.586,65.215,50.361,65.232,50.209,65.255z"/>
		<path fill="#F15A29" stroke="#FF6633" stroke-width="0.25" stroke-miterlimit="10" d="M54.381,49.542
			c-2.664-1.648-5.316-1.643-7.943-0.041c0.471-1.004,1.789-1.808,3.386-1.911C51.676,47.471,53.311,47.886,54.381,49.542z"/>
		<path fill="#F15A29" stroke="#FF6633" stroke-width="0.25" stroke-miterlimit="10" d="M54.516,44.78
			c-0.457-0.033-0.971-0.236-1.342-0.72c-0.363-0.473-0.141-0.971,0.453-1.041c0.57-0.066,1.07,0.104,1.51,0.462
			c0.336,0.276,0.471,0.622,0.363,0.895C55.391,44.65,55.104,44.788,54.516,44.78z"/>
		<path fill="#F15A29" stroke="#FF6633" stroke-width="0.25" stroke-miterlimit="10" d="M45.975,44.787
			c-0.109-0.008-0.203-0.006-0.297-0.023c-0.546-0.104-0.731-0.566-0.411-1.022c0.361-0.515,1.216-0.847,1.834-0.711
			c0.539,0.119,0.715,0.588,0.367,1.038C47.09,44.555,46.565,44.761,45.975,44.787z"/>
		<path fill="#F15A29" stroke="#FF6633" stroke-width="0.25" stroke-miterlimit="10" d="M55.348,48.536
			c0.252,1.181,0.84,1.84,1.74,1.998c0.971,0.173,1.715-0.221,2.35-1.241c-0.08,0.944-1.141,1.763-2.166,1.671
			C56.037,50.855,55.225,49.855,55.348,48.536z"/>
		<path fill="#F15A29" stroke="#FF6633" stroke-width="0.25" stroke-miterlimit="10" d="M45.285,48.594
			c0.098,0.715-0.101,1.339-0.645,1.822c-0.631,0.563-1.371,0.707-2.16,0.407c-0.673-0.255-1.104-0.747-1.262-1.456
			c0.674,1.16,1.725,1.324,2.476,1.141C44.535,50.3,45.135,49.579,45.285,48.594z"/>
	</g>
</g>
</svg>
