<?xml version="1.0" encoding="utf-8"?>
<!-- Generator: Adobe Illustrator 16.0.0, SVG Export Plug-In . SVG Version: 6.00 Build 0)  -->
<!DOCTYPE svg PUBLIC "-//W3C//DTD SVG 1.1//EN" "http://www.w3.org/Graphics/SVG/1.1/DTD/svg11.dtd">
<svg version="1.1" xmlns="http://www.w3.org/2000/svg" xmlns:xlink="http://www.w3.org/1999/xlink" x="0px" y="0px" width="100px"
	 height="100px" viewBox="0 0 100 100" enable-background="new 0 0 100 100" xml:space="preserve">
<g id="Dog1">
	<g>
		<g>
			<path fill="#F15A29" stroke="#FF6633" stroke-width="0.25" stroke-miterlimit="10" d="M47.079,16.507
				c-0.144,0.501-0.236,1.026-0.447,1.498c-0.297,0.676-0.68,1.315-1.032,1.967c-0.046,0.088-0.115,0.167-0.185,0.242
				c-0.464,0.49-1.071,0.499-1.492-0.026c-0.272-0.337-0.465-0.736-0.688-1.109c-0.403-0.667-0.8-1.335-1.203-2.002
				c-0.031-0.054-0.076-0.104-0.121-0.167c-0.358,0.267-0.584,0.62-0.779,0.996c-0.487,0.945-0.767,1.961-1.046,2.978
				c-0.051,0.188-0.101,0.375-0.167,0.615c-0.134-0.22-0.239-0.404-0.358-0.58c-0.21-0.307-0.431-0.604-0.637-0.912
				c-0.048-0.072-0.094-0.176-0.081-0.257c0.232-1.351,0.713-2.578,1.806-3.484c0.17-0.142,0.366-0.256,0.596-0.414
				c-0.46-0.543-0.891-1.103-1.376-1.608c-0.36-0.374-0.779-0.699-1.205-1.002c-0.224-0.16-0.511-0.24-0.78-0.322
				c-0.439-0.135-0.763,0.058-1.004,0.421c-0.308,0.472-0.474,1.004-0.545,1.552c-0.117,0.9-0.183,1.808-0.268,2.712
				c-0.008,0.076-0.001,0.154-0.001,0.236c-0.356-0.25-0.681-0.509-1.032-0.719c-1.173-0.703-2.458-1.084-3.804-1.26
				c-1.883-0.244-3.732-0.088-5.531,0.549c-0.897,0.32-1.739,0.741-2.451,1.391c-0.019,0.018-0.047,0.028-0.086,0.052
				c-0.023-0.462-0.037-0.909-0.071-1.355c-0.066-0.879-0.171-1.751-0.476-2.587c-0.064-0.17-0.142-0.337-0.234-0.492
				c-0.304-0.509-0.651-0.636-1.219-0.466c-0.462,0.139-0.851,0.405-1.215,0.712c-0.707,0.594-1.674,1.732-2.223,2.609
				c0.22,0.147,0.45,0.281,0.657,0.443c0.767,0.603,1.208,1.426,1.512,2.328c0.123,0.363,0.199,0.742,0.271,1.119
				c0.02,0.096-0.036,0.224-0.093,0.314c-0.271,0.421-0.556,0.834-0.834,1.25c-0.04,0.058-0.076,0.118-0.128,0.197
				c-0.193-0.665-0.364-1.3-0.561-1.929c-0.228-0.723-0.479-1.438-0.914-2.066c-0.158-0.229-0.361-0.425-0.578-0.675
				c-0.342,0.581-0.652,1.097-0.956,1.617c-0.197,0.339-0.38,0.688-0.581,1.026c-0.177,0.301-0.407,0.556-0.76,0.647
				c-0.427,0.108-0.778-0.063-1.012-0.399c-0.756-1.083-1.364-2.234-1.576-3.56c-0.01-0.056-0.029-0.112-0.043-0.166
				c0-0.159,0-0.321,0-0.481c0.011-0.025,0.032-0.051,0.034-0.078c0.053-0.537,0.345-0.928,0.751-1.256
				c0.595-0.481,1.274-0.811,1.979-1.087c0.368-0.143,0.743-0.262,1.113-0.392c0.006,0.018,0.013,0.035,0.02,0.053
				c-0.083,0.042-0.166,0.082-0.249,0.126c-0.563,0.317-1.138,0.615-1.685,0.959c-0.503,0.314-0.72,0.802-0.605,1.39
				c0.106,0.534,0.232,1.068,0.405,1.582c0.192,0.57,0.491,0.619,0.894,0.159c0.316-0.36,0.6-0.749,0.88-1.138
				c0.593-0.828,1.165-1.672,1.907-2.381c0.941-0.898,1.992-1.607,3.288-1.884c0.219-0.048,0.442-0.079,0.663-0.116
				c0.233,0,0.467,0,0.698,0c0.071,0.015,0.14,0.037,0.21,0.046c1.048,0.139,1.67,0.721,1.792,1.769
				c0.062,0.524,0.028,1.06,0.025,1.588c-0.003,0.228-0.039,0.456-0.06,0.702c3.547-2.4,7.089-2.486,10.667-0.095
				c-0.006-0.127-0.023-0.237-0.015-0.344c0.03-0.521,0.015-1.049,0.111-1.559c0.18-0.938,0.685-1.65,1.645-1.937
				c0.309-0.092,0.641-0.116,0.962-0.171c0.028,0,0.056,0,0.087,0c0.033,0.009,0.067,0.025,0.104,0.027
				c1.182,0.05,2.183,0.546,3.099,1.255c0.999,0.771,1.758,1.751,2.477,2.772c0.361,0.51,0.731,1.016,1.138,1.491
				c0.368,0.432,0.675,0.372,0.855-0.161c0.172-0.507,0.297-1.033,0.406-1.557c0.133-0.633-0.106-1.131-0.646-1.479
				c-0.327-0.211-0.665-0.41-1.007-0.601c-0.292-0.161-0.591-0.3-0.886-0.449c0.044-0.024,0.081-0.022,0.114-0.013
				c0.79,0.237,1.557,0.529,2.27,0.942c0.705,0.409,1.353,0.868,1.513,1.746C47.079,16.069,47.079,16.288,47.079,16.507z"/>
			<path fill="#F15A29" stroke="#FF6633" stroke-width="0.25" stroke-miterlimit="10" d="M29.875,31.424
				c-0.103,0.294-0.184,0.547-0.28,0.798c-0.448,1.172-1.102,2.197-2.149,2.927c-1.244,0.866-2.641,1.077-4.106,0.862
				c-1.762-0.257-2.904-1.302-3.504-2.938c-0.583-1.587-0.627-3.217-0.231-4.855c0.057-0.237,0.168-0.465,0.275-0.686
				c0.086-0.18,0.248-0.25,0.438-0.173c0.174,0.072,0.145,0.231,0.124,0.378c-0.165,1.13-0.228,2.261,0.032,3.386
				c0.245,1.055,0.739,1.943,1.718,2.49c0.734,0.411,1.537,0.523,2.363,0.484c1.819-0.085,3.003-1.075,3.752-2.666
				c0.502-1.065,0.732-2.202,0.862-3.365c0.022-0.218,0.018-0.439,0.06-0.652c0.05-0.26-0.029-0.445-0.199-0.648
				c-0.333-0.393-0.647-0.804-0.93-1.233c-0.118-0.178-0.17-0.417-0.189-0.635c-0.028-0.33,0.165-0.567,0.48-0.671
				c0.062-0.02,0.125-0.044,0.191-0.044c0.865-0.002,1.731-0.032,2.595,0.015c0.636,0.035,0.786,0.564,0.597,1.073
				c-0.115,0.31-0.337,0.589-0.535,0.863c-0.2,0.276-0.432,0.53-0.642,0.801c-0.049,0.062-0.088,0.154-0.085,0.229
				c0.077,1.471,0.3,2.911,0.927,4.26c0.492,1.062,1.202,1.935,2.325,2.37c1.198,0.465,2.415,0.438,3.598-0.058
				c1.123-0.472,1.687-1.404,1.941-2.553c0.243-1.096,0.177-2.198,0.023-3.3c-0.013-0.084-0.041-0.177-0.021-0.258
				c0.021-0.095,0.069-0.244,0.132-0.257c0.11-0.022,0.302,0.002,0.345,0.074c0.148,0.246,0.294,0.51,0.36,0.786
				c0.422,1.776,0.361,3.533-0.376,5.218c-0.752,1.718-2.121,2.564-3.98,2.634c-1.333,0.052-2.576-0.237-3.653-1.061
				c-0.995-0.757-1.612-1.781-2.035-2.938C30.022,31.877,29.958,31.671,29.875,31.424z"/>
			<path fill="#F15A29" stroke="#FF6633" stroke-width="0.25" stroke-miterlimit="10" d="M23.896,24.945
				c-0.782,0.012-1.414-0.614-1.423-1.404c-0.009-0.787,0.614-1.428,1.392-1.439c0.788-0.01,1.434,0.611,1.449,1.389
				C25.33,24.296,24.711,24.932,23.896,24.945z"/>
			<path fill="#F15A29" stroke="#FF6633" stroke-width="0.25" stroke-miterlimit="10" d="M35.88,24.945
				c-0.8,0.008-1.434-0.608-1.442-1.408c-0.008-0.785,0.617-1.426,1.398-1.436c0.791-0.009,1.439,0.624,1.447,1.413
				C37.291,24.295,36.662,24.935,35.88,24.945z"/>
			<path fill="#F15A29" stroke="#FF6633" stroke-width="0.25" stroke-miterlimit="10" d="M29.779,37.654
				c-1.187-0.049-2.008-0.601-2.587-1.539c-0.039-0.064-0.045-0.198-0.003-0.254c0.092-0.117,0.204-0.031,0.309,0.023
				c1.213,0.645,2.46,0.802,3.744,0.228c0.234-0.105,0.441-0.279,0.668-0.404c0.069-0.04,0.17-0.027,0.257-0.038
				c0.01,0.087,0.054,0.191,0.022,0.256c-0.405,0.814-0.987,1.435-1.909,1.655C30.097,37.62,29.907,37.635,29.779,37.654z"/>
			<path fill="#F15A29" stroke="#FF6633" stroke-width="0.25" stroke-miterlimit="10" d="M33.304,24.377
				c-2.251-1.393-4.492-1.388-6.711-0.035c0.398-0.848,1.512-1.528,2.861-1.615C31.018,22.627,32.399,22.978,33.304,24.377z"/>
			<path fill="#F15A29" stroke="#FF6633" stroke-width="0.25" stroke-miterlimit="10" d="M33.417,20.353
				c-0.386-0.028-0.82-0.199-1.134-0.608c-0.307-0.4-0.119-0.821,0.383-0.88c0.482-0.056,0.904,0.088,1.275,0.39
				c0.284,0.233,0.398,0.526,0.307,0.756C34.157,20.243,33.915,20.36,33.417,20.353z"/>
			<path fill="#F15A29" stroke="#FF6633" stroke-width="0.25" stroke-miterlimit="10" d="M26.201,20.359
				c-0.092-0.007-0.171-0.005-0.25-0.02c-0.462-0.088-0.618-0.478-0.348-0.863c0.305-0.436,1.027-0.716,1.55-0.601
				c0.456,0.101,0.604,0.497,0.31,0.877C27.143,20.163,26.7,20.337,26.201,20.359z"/>
			<path fill="#F15A29" stroke="#FF6633" stroke-width="0.25" stroke-miterlimit="10" d="M34.121,23.527
				c0.213,0.998,0.71,1.555,1.471,1.688c0.82,0.146,1.449-0.187,1.985-1.049c-0.068,0.797-0.964,1.49-1.831,1.412
				C34.703,25.487,34.017,24.642,34.121,23.527z"/>
			<path fill="#F15A29" stroke="#FF6633" stroke-width="0.25" stroke-miterlimit="10" d="M25.618,23.576
				c0.083,0.604-0.085,1.132-0.545,1.54c-0.533,0.476-1.158,0.598-1.825,0.344c-0.568-0.215-0.933-0.631-1.066-1.23
				c0.57,0.98,1.458,1.119,2.092,0.964C24.984,25.017,25.491,24.408,25.618,23.576z"/>
		</g>
	</g>
</g>
<g id="Dog2">
	<g>
		<g>
			<path fill="#F15A29" stroke="#FF6633" stroke-width="0.25" stroke-miterlimit="10" d="M87.84,16.688
				c-0.144,0.501-0.236,1.026-0.447,1.498c-0.297,0.676-0.681,1.314-1.031,1.967c-0.047,0.088-0.116,0.167-0.186,0.242
				c-0.464,0.489-1.07,0.499-1.491-0.026c-0.272-0.337-0.466-0.736-0.688-1.109c-0.402-0.667-0.801-1.335-1.203-2.002
				c-0.031-0.054-0.076-0.104-0.12-0.167c-0.358,0.267-0.585,0.62-0.779,0.996c-0.487,0.945-0.768,1.961-1.046,2.978
				c-0.052,0.188-0.102,0.375-0.167,0.615c-0.134-0.22-0.239-0.404-0.358-0.58c-0.209-0.307-0.431-0.604-0.637-0.912
				c-0.048-0.072-0.094-0.176-0.081-0.257c0.231-1.351,0.713-2.578,1.806-3.485c0.17-0.142,0.366-0.255,0.596-0.414
				c-0.461-0.543-0.892-1.103-1.377-1.608c-0.359-0.374-0.778-0.699-1.204-1.002c-0.224-0.16-0.511-0.24-0.78-0.322
				c-0.438-0.135-0.763,0.058-1.004,0.421c-0.308,0.472-0.474,1.004-0.545,1.552c-0.117,0.9-0.184,1.808-0.269,2.712
				c-0.009,0.076-0.002,0.154-0.002,0.236c-0.356-0.25-0.681-0.508-1.032-0.719c-1.173-0.703-2.458-1.084-3.804-1.26
				c-1.883-0.244-3.732-0.088-5.531,0.549c-0.896,0.32-1.738,0.741-2.45,1.391c-0.02,0.018-0.048,0.028-0.086,0.052
				c-0.022-0.462-0.036-0.909-0.071-1.355c-0.066-0.879-0.172-1.751-0.476-2.587c-0.064-0.17-0.143-0.337-0.234-0.492
				c-0.305-0.509-0.652-0.636-1.221-0.466c-0.461,0.139-0.85,0.405-1.214,0.712c-0.708,0.594-1.675,1.732-2.224,2.609
				c0.221,0.147,0.451,0.281,0.657,0.443c0.768,0.603,1.208,1.425,1.512,2.328c0.122,0.363,0.199,0.742,0.271,1.119
				c0.02,0.096-0.036,0.224-0.093,0.314c-0.271,0.421-0.556,0.834-0.835,1.25c-0.039,0.058-0.075,0.118-0.128,0.197
				c-0.193-0.665-0.363-1.3-0.562-1.929c-0.228-0.723-0.479-1.438-0.913-2.067c-0.157-0.229-0.36-0.425-0.579-0.674
				c-0.342,0.581-0.651,1.097-0.955,1.617c-0.196,0.339-0.379,0.688-0.581,1.026c-0.177,0.301-0.406,0.556-0.759,0.647
				c-0.428,0.108-0.778-0.063-1.014-0.399c-0.755-1.083-1.363-2.234-1.575-3.561c-0.009-0.056-0.028-0.111-0.043-0.165
				c0-0.159,0-0.321,0-0.481c0.011-0.025,0.032-0.051,0.034-0.078c0.052-0.537,0.344-0.928,0.751-1.256
				c0.595-0.481,1.274-0.811,1.979-1.087c0.367-0.143,0.742-0.262,1.113-0.392c0.006,0.018,0.012,0.035,0.02,0.053
				c-0.084,0.042-0.166,0.082-0.249,0.126c-0.563,0.317-1.138,0.615-1.685,0.959c-0.503,0.314-0.721,0.802-0.605,1.39
				c0.105,0.534,0.232,1.068,0.404,1.582c0.192,0.57,0.492,0.619,0.894,0.159c0.316-0.36,0.601-0.75,0.881-1.138
				c0.593-0.828,1.165-1.672,1.907-2.382c0.941-0.898,1.991-1.607,3.287-1.883c0.219-0.048,0.441-0.079,0.663-0.116
				c0.232,0,0.467,0,0.698,0c0.071,0.015,0.14,0.037,0.21,0.046c1.049,0.138,1.67,0.721,1.792,1.769
				c0.062,0.524,0.028,1.06,0.024,1.588c-0.003,0.228-0.038,0.456-0.06,0.702c3.548-2.4,7.089-2.486,10.667-0.095
				c-0.007-0.127-0.023-0.237-0.015-0.344c0.029-0.521,0.015-1.049,0.11-1.559c0.18-0.938,0.685-1.65,1.646-1.937
				c0.309-0.093,0.641-0.116,0.962-0.171c0.028,0,0.057,0,0.088,0c0.033,0.009,0.067,0.025,0.104,0.027
				c1.182,0.05,2.184,0.546,3.1,1.255c0.998,0.771,1.758,1.751,2.477,2.772c0.361,0.511,0.731,1.016,1.139,1.492
				c0.368,0.432,0.675,0.372,0.855-0.161c0.171-0.507,0.297-1.033,0.405-1.557c0.134-0.633-0.105-1.131-0.645-1.479
				c-0.327-0.211-0.665-0.41-1.008-0.601c-0.291-0.161-0.591-0.3-0.886-0.449c0.044-0.024,0.08-0.022,0.113-0.013
				c0.79,0.237,1.557,0.529,2.271,0.942c0.704,0.409,1.353,0.868,1.513,1.746C87.84,16.25,87.84,16.469,87.84,16.688z"/>
			<path fill="#F15A29" stroke="#FF6633" stroke-width="0.25" stroke-miterlimit="10" d="M70.636,31.605
				c-0.103,0.294-0.183,0.547-0.279,0.798c-0.448,1.172-1.102,2.197-2.149,2.927c-1.243,0.866-2.64,1.077-4.105,0.862
				c-1.763-0.257-2.904-1.302-3.504-2.938c-0.583-1.587-0.628-3.217-0.231-4.855c0.058-0.237,0.168-0.465,0.274-0.686
				c0.087-0.18,0.248-0.25,0.438-0.173c0.175,0.073,0.146,0.231,0.124,0.378c-0.166,1.131-0.229,2.261,0.031,3.387
				c0.246,1.055,0.739,1.943,1.718,2.49c0.734,0.411,1.537,0.523,2.363,0.484c1.82-0.085,3.004-1.075,3.753-2.666
				c0.501-1.065,0.732-2.202,0.861-3.365c0.023-0.218,0.018-0.439,0.06-0.652c0.05-0.26-0.028-0.445-0.198-0.648
				c-0.333-0.393-0.647-0.805-0.931-1.233c-0.117-0.178-0.17-0.417-0.189-0.635c-0.027-0.33,0.164-0.567,0.479-0.671
				c0.062-0.02,0.127-0.045,0.191-0.045c0.865-0.001,1.731-0.031,2.596,0.016c0.636,0.035,0.786,0.564,0.597,1.073
				c-0.115,0.31-0.337,0.589-0.534,0.863c-0.2,0.276-0.433,0.53-0.642,0.8c-0.05,0.063-0.089,0.155-0.086,0.229
				c0.077,1.471,0.3,2.911,0.927,4.26c0.492,1.062,1.202,1.935,2.325,2.37c1.198,0.465,2.415,0.438,3.598-0.058
				c1.123-0.472,1.688-1.404,1.941-2.553c0.242-1.096,0.177-2.198,0.022-3.3c-0.013-0.084-0.041-0.177-0.021-0.258
				c0.021-0.095,0.068-0.244,0.132-0.257c0.11-0.022,0.302,0.002,0.345,0.074c0.148,0.246,0.294,0.51,0.359,0.786
				c0.423,1.776,0.361,3.533-0.376,5.218c-0.753,1.718-2.121,2.564-3.98,2.634c-1.334,0.052-2.576-0.238-3.653-1.061
				c-0.994-0.757-1.612-1.781-2.034-2.938C70.783,32.058,70.72,31.853,70.636,31.605z"/>
			<path fill="#F15A29" stroke="#FF6633" stroke-width="0.25" stroke-miterlimit="10" d="M64.657,25.126
				c-0.782,0.012-1.415-0.614-1.425-1.404c-0.008-0.787,0.615-1.428,1.393-1.439c0.788-0.01,1.435,0.611,1.449,1.389
				C66.091,24.478,65.472,25.113,64.657,25.126z"/>
			<path fill="#F15A29" stroke="#FF6633" stroke-width="0.25" stroke-miterlimit="10" d="M76.641,25.126
				c-0.801,0.008-1.435-0.608-1.442-1.408c-0.009-0.785,0.616-1.426,1.397-1.435c0.791-0.009,1.439,0.624,1.447,1.413
				C78.052,24.477,77.423,25.116,76.641,25.126z"/>
			<path fill="#F15A29" stroke="#FF6633" stroke-width="0.25" stroke-miterlimit="10" d="M70.539,37.835
				c-1.188-0.049-2.008-0.601-2.587-1.539c-0.039-0.064-0.045-0.198-0.003-0.254c0.092-0.117,0.203-0.031,0.309,0.023
				c1.213,0.645,2.46,0.802,3.744,0.228c0.234-0.105,0.44-0.279,0.668-0.404c0.069-0.04,0.17-0.027,0.257-0.038
				c0.01,0.087,0.054,0.191,0.022,0.256c-0.405,0.814-0.987,1.435-1.91,1.654C70.857,37.801,70.667,37.816,70.539,37.835z"/>
			<path fill="#F15A29" stroke="#FF6633" stroke-width="0.25" stroke-miterlimit="10" d="M74.064,24.558
				c-2.251-1.393-4.491-1.388-6.711-0.035c0.397-0.848,1.512-1.528,2.86-1.615C71.778,22.808,73.16,23.159,74.064,24.558z"/>
			<path fill="#F15A29" stroke="#FF6633" stroke-width="0.25" stroke-miterlimit="10" d="M74.179,20.534
				c-0.387-0.028-0.82-0.199-1.134-0.608c-0.308-0.399-0.119-0.82,0.383-0.879c0.481-0.056,0.904,0.088,1.275,0.39
				c0.284,0.233,0.397,0.526,0.307,0.756C74.918,20.424,74.675,20.541,74.179,20.534z"/>
			<path fill="#F15A29" stroke="#FF6633" stroke-width="0.25" stroke-miterlimit="10" d="M66.962,20.541
				c-0.092-0.007-0.171-0.005-0.25-0.02c-0.463-0.088-0.619-0.478-0.349-0.864c0.306-0.435,1.028-0.716,1.55-0.601
				c0.455,0.101,0.604,0.497,0.311,0.877C67.904,20.344,67.461,20.518,66.962,20.541z"/>
			<path fill="#F15A29" stroke="#FF6633" stroke-width="0.25" stroke-miterlimit="10" d="M74.881,23.708
				c0.213,0.998,0.71,1.555,1.471,1.688c0.82,0.146,1.449-0.187,1.985-1.049c-0.067,0.797-0.964,1.49-1.83,1.412
				C75.464,25.668,74.777,24.822,74.881,23.708z"/>
			<path fill="#F15A29" stroke="#FF6633" stroke-width="0.25" stroke-miterlimit="10" d="M66.379,23.757
				c0.083,0.604-0.085,1.132-0.545,1.54c-0.533,0.476-1.159,0.598-1.826,0.344c-0.567-0.215-0.932-0.631-1.065-1.23
				c0.569,0.98,1.457,1.119,2.093,0.964C65.745,25.198,66.252,24.589,66.379,23.757z"/>
		</g>
	</g>
</g>
<g id="Dog3">
	<g>
		<g>
			<path fill="#F15A29" stroke="#FF6633" stroke-width="0.25" stroke-miterlimit="10" d="M47.155,66.84
				c-0.144,0.5-0.236,1.025-0.447,1.497c-0.297,0.676-0.68,1.315-1.031,1.967c-0.046,0.088-0.116,0.167-0.185,0.242
				c-0.464,0.489-1.071,0.499-1.492-0.025c-0.272-0.337-0.465-0.736-0.688-1.109c-0.402-0.667-0.8-1.335-1.203-2.002
				c-0.031-0.054-0.076-0.105-0.12-0.167c-0.358,0.267-0.584,0.619-0.779,0.996c-0.487,0.944-0.767,1.961-1.046,2.978
				c-0.051,0.188-0.101,0.376-0.167,0.615c-0.133-0.22-0.239-0.404-0.358-0.58c-0.209-0.308-0.431-0.604-0.637-0.912
				c-0.048-0.072-0.094-0.177-0.081-0.258c0.231-1.351,0.713-2.577,1.805-3.483c0.17-0.142,0.366-0.256,0.596-0.414
				c-0.46-0.543-0.891-1.103-1.376-1.608c-0.36-0.374-0.779-0.699-1.205-1.003c-0.224-0.159-0.511-0.239-0.78-0.321
				c-0.439-0.136-0.763,0.059-1.004,0.421c-0.308,0.473-0.474,1.005-0.545,1.553c-0.117,0.899-0.184,1.807-0.269,2.711
				c-0.008,0.076-0.001,0.154-0.001,0.236c-0.356-0.25-0.681-0.508-1.032-0.719c-1.173-0.703-2.458-1.084-3.804-1.26
				c-1.883-0.244-3.732-0.089-5.531,0.55c-0.897,0.319-1.739,0.74-2.45,1.39c-0.02,0.018-0.047,0.028-0.086,0.053
				c-0.022-0.463-0.036-0.91-0.071-1.356c-0.067-0.879-0.172-1.752-0.477-2.587c-0.064-0.171-0.142-0.337-0.234-0.493
				c-0.305-0.508-0.651-0.636-1.22-0.466c-0.462,0.139-0.851,0.405-1.215,0.712c-0.708,0.594-1.674,1.732-2.223,2.609
				c0.22,0.146,0.451,0.281,0.657,0.443c0.768,0.603,1.208,1.425,1.512,2.327c0.123,0.363,0.199,0.742,0.271,1.119
				c0.02,0.097-0.036,0.225-0.093,0.314c-0.271,0.421-0.556,0.834-0.834,1.25c-0.04,0.058-0.076,0.118-0.128,0.198
				c-0.192-0.665-0.363-1.301-0.561-1.93c-0.228-0.723-0.479-1.438-0.914-2.067c-0.158-0.229-0.361-0.425-0.578-0.674
				c-0.342,0.58-0.652,1.097-0.955,1.617c-0.197,0.339-0.38,0.688-0.582,1.025c-0.177,0.302-0.406,0.556-0.76,0.647
				c-0.427,0.108-0.777-0.063-1.012-0.399c-0.755-1.083-1.364-2.233-1.576-3.561c-0.009-0.056-0.029-0.11-0.043-0.165
				c0-0.158,0-0.321,0-0.48c0.011-0.026,0.032-0.051,0.034-0.078c0.052-0.536,0.345-0.928,0.751-1.255
				c0.595-0.482,1.274-0.812,1.979-1.088c0.368-0.144,0.743-0.263,1.113-0.393c0.006,0.019,0.013,0.034,0.02,0.053
				c-0.083,0.042-0.166,0.082-0.249,0.127c-0.562,0.317-1.138,0.615-1.685,0.959c-0.503,0.313-0.72,0.802-0.605,1.391
				c0.105,0.533,0.232,1.068,0.405,1.582c0.192,0.57,0.491,0.618,0.893,0.158c0.316-0.36,0.6-0.749,0.88-1.138
				c0.593-0.828,1.165-1.672,1.907-2.381c0.941-0.898,1.992-1.607,3.288-1.884c0.219-0.048,0.442-0.08,0.663-0.117
				c0.233,0,0.467,0,0.699,0c0.071,0.016,0.139,0.037,0.21,0.047c1.048,0.139,1.67,0.721,1.792,1.77
				c0.062,0.522,0.028,1.059,0.025,1.587c-0.003,0.229-0.039,0.456-0.06,0.703c3.547-2.401,7.089-2.486,10.667-0.096
				c-0.007-0.127-0.023-0.236-0.015-0.344c0.03-0.521,0.015-1.05,0.111-1.559c0.18-0.938,0.685-1.65,1.646-1.937
				c0.309-0.093,0.64-0.117,0.962-0.172c0.028,0,0.056,0,0.087,0c0.033,0.01,0.068,0.025,0.104,0.027
				c1.182,0.05,2.184,0.546,3.099,1.256c0.999,0.771,1.758,1.751,2.477,2.771c0.361,0.511,0.731,1.016,1.138,1.491
				c0.369,0.433,0.675,0.372,0.855-0.16c0.171-0.507,0.297-1.033,0.405-1.558c0.135-0.633-0.105-1.131-0.645-1.479
				c-0.327-0.211-0.665-0.409-1.007-0.601c-0.292-0.16-0.591-0.299-0.886-0.448c0.044-0.024,0.081-0.022,0.114-0.014
				c0.79,0.237,1.556,0.53,2.27,0.943c0.705,0.408,1.354,0.867,1.513,1.746C47.155,66.402,47.155,66.621,47.155,66.84z"/>
			<path fill="#F15A29" stroke="#FF6633" stroke-width="0.25" stroke-miterlimit="10" d="M29.952,81.757
				c-0.103,0.294-0.184,0.547-0.28,0.798c-0.448,1.171-1.102,2.197-2.148,2.927c-1.244,0.865-2.641,1.076-4.106,0.862
				c-1.762-0.257-2.904-1.303-3.504-2.938c-0.583-1.588-0.627-3.218-0.231-4.855c0.058-0.236,0.168-0.465,0.275-0.686
				c0.086-0.18,0.249-0.251,0.438-0.174c0.174,0.073,0.146,0.231,0.124,0.378c-0.165,1.131-0.228,2.262,0.032,3.387
				c0.245,1.055,0.739,1.943,1.718,2.49c0.734,0.411,1.537,0.523,2.363,0.484c1.819-0.085,3.003-1.075,3.752-2.666
				c0.502-1.065,0.733-2.202,0.862-3.365c0.022-0.218,0.018-0.438,0.06-0.651c0.05-0.26-0.029-0.445-0.199-0.648
				c-0.333-0.393-0.647-0.805-0.93-1.233c-0.118-0.178-0.17-0.418-0.189-0.636c-0.028-0.329,0.165-0.567,0.48-0.671
				c0.062-0.02,0.126-0.045,0.191-0.045c0.865-0.001,1.731-0.031,2.595,0.016c0.636,0.035,0.786,0.564,0.597,1.072
				c-0.115,0.311-0.337,0.589-0.535,0.863c-0.2,0.275-0.432,0.529-0.642,0.8c-0.05,0.063-0.088,0.154-0.085,0.229
				c0.077,1.471,0.299,2.911,0.926,4.26c0.492,1.062,1.202,1.935,2.326,2.37c1.198,0.465,2.414,0.438,3.598-0.058
				c1.122-0.473,1.687-1.405,1.94-2.554c0.243-1.096,0.177-2.198,0.023-3.301c-0.014-0.084-0.042-0.176-0.021-0.258
				c0.021-0.095,0.069-0.243,0.132-0.257c0.11-0.022,0.302,0.003,0.345,0.074c0.149,0.246,0.294,0.51,0.36,0.786
				c0.422,1.775,0.361,3.533-0.376,5.218c-0.753,1.718-2.121,2.564-3.981,2.634c-1.333,0.053-2.576-0.237-3.653-1.061
				c-0.994-0.758-1.612-1.781-2.035-2.938C30.099,82.209,30.035,82.004,29.952,81.757z"/>
			<path fill="#F15A29" stroke="#FF6633" stroke-width="0.25" stroke-miterlimit="10" d="M23.973,75.278
				c-0.783,0.012-1.415-0.614-1.424-1.404c-0.009-0.787,0.614-1.428,1.393-1.439c0.788-0.009,1.434,0.611,1.449,1.39
				C25.406,74.63,24.788,75.265,23.973,75.278z"/>
			<path fill="#F15A29" stroke="#FF6633" stroke-width="0.25" stroke-miterlimit="10" d="M35.956,75.277
				c-0.8,0.009-1.434-0.608-1.442-1.408c-0.008-0.784,0.617-1.426,1.398-1.435c0.791-0.009,1.439,0.624,1.447,1.413
				C37.367,74.628,36.738,75.268,35.956,75.277z"/>
			<path fill="#F15A29" stroke="#FF6633" stroke-width="0.25" stroke-miterlimit="10" d="M29.855,87.986
				c-1.187-0.049-2.008-0.601-2.587-1.539c-0.039-0.064-0.045-0.198-0.003-0.254c0.092-0.117,0.203-0.031,0.309,0.023
				c1.212,0.645,2.459,0.802,3.744,0.228c0.234-0.105,0.44-0.279,0.668-0.404c0.069-0.04,0.17-0.027,0.256-0.038
				c0.01,0.087,0.054,0.191,0.022,0.256c-0.405,0.814-0.987,1.435-1.91,1.654C30.174,87.952,29.983,87.968,29.855,87.986z"/>
			<path fill="#F15A29" stroke="#FF6633" stroke-width="0.25" stroke-miterlimit="10" d="M33.38,74.71
				c-2.251-1.393-4.492-1.389-6.711-0.035c0.398-0.848,1.512-1.527,2.861-1.614C31.094,72.959,32.476,73.311,33.38,74.71z"/>
			<path fill="#F15A29" stroke="#FF6633" stroke-width="0.25" stroke-miterlimit="10" d="M33.494,70.686
				c-0.386-0.027-0.82-0.199-1.134-0.607c-0.307-0.4-0.119-0.821,0.383-0.88c0.482-0.056,0.904,0.088,1.276,0.39
				c0.284,0.233,0.397,0.526,0.307,0.757C34.233,70.576,33.991,70.692,33.494,70.686z"/>
			<path fill="#F15A29" stroke="#FF6633" stroke-width="0.25" stroke-miterlimit="10" d="M26.278,70.692
				c-0.092-0.007-0.172-0.006-0.251-0.021c-0.462-0.087-0.618-0.478-0.348-0.863c0.305-0.436,1.027-0.716,1.55-0.601
				c0.456,0.101,0.604,0.497,0.31,0.877C27.22,70.495,26.776,70.67,26.278,70.692z"/>
			<path fill="#F15A29" stroke="#FF6633" stroke-width="0.25" stroke-miterlimit="10" d="M34.197,73.859
				c0.213,0.998,0.709,1.555,1.47,1.688c0.82,0.146,1.449-0.188,1.985-1.049c-0.068,0.797-0.964,1.49-1.83,1.412
				C34.78,75.819,34.093,74.975,34.197,73.859z"/>
			<path fill="#F15A29" stroke="#FF6633" stroke-width="0.25" stroke-miterlimit="10" d="M25.695,73.908
				c0.083,0.604-0.085,1.132-0.545,1.54c-0.533,0.476-1.158,0.598-1.825,0.344c-0.568-0.215-0.933-0.631-1.066-1.23
				c0.57,0.98,1.458,1.119,2.092,0.964C25.061,75.35,25.567,74.741,25.695,73.908z"/>
		</g>
	</g>
</g>
<g id="Dog4">
	<g>
		<g>
			<path fill="#F15A29" stroke="#FF6633" stroke-width="0.25" stroke-miterlimit="10" d="M87.839,66.659
				c-0.144,0.501-0.235,1.026-0.447,1.497c-0.297,0.676-0.68,1.314-1.031,1.968c-0.046,0.088-0.115,0.167-0.185,0.241
				c-0.464,0.49-1.071,0.499-1.492-0.025c-0.272-0.338-0.465-0.736-0.688-1.109c-0.402-0.667-0.8-1.336-1.202-2.002
				c-0.032-0.054-0.076-0.104-0.121-0.167c-0.358,0.268-0.584,0.62-0.778,0.996c-0.487,0.944-0.768,1.961-1.047,2.978
				c-0.051,0.188-0.101,0.375-0.167,0.615c-0.133-0.22-0.239-0.404-0.357-0.58c-0.21-0.307-0.431-0.604-0.638-0.912
				c-0.048-0.071-0.094-0.177-0.08-0.257c0.231-1.352,0.713-2.577,1.805-3.485c0.17-0.142,0.367-0.256,0.596-0.413
				c-0.46-0.544-0.891-1.104-1.376-1.608c-0.359-0.374-0.779-0.699-1.205-1.002c-0.224-0.16-0.511-0.24-0.779-0.321
				c-0.439-0.136-0.764,0.058-1.004,0.421c-0.309,0.472-0.474,1.004-0.546,1.551c-0.117,0.9-0.184,1.809-0.269,2.713
				c-0.008,0.075-0.001,0.154-0.001,0.236c-0.356-0.251-0.681-0.509-1.032-0.72c-1.174-0.703-2.458-1.084-3.805-1.26
				c-1.883-0.244-3.731-0.088-5.53,0.549c-0.897,0.321-1.739,0.742-2.45,1.392c-0.02,0.018-0.048,0.027-0.087,0.051
				c-0.021-0.462-0.036-0.908-0.07-1.354c-0.067-0.88-0.172-1.751-0.477-2.588c-0.064-0.17-0.142-0.337-0.234-0.492
				c-0.305-0.509-0.651-0.637-1.22-0.467c-0.462,0.141-0.851,0.405-1.215,0.713c-0.707,0.594-1.674,1.732-2.223,2.608
				c0.22,0.146,0.451,0.281,0.657,0.443c0.767,0.602,1.208,1.426,1.512,2.328c0.122,0.362,0.198,0.741,0.271,1.119
				c0.02,0.096-0.037,0.223-0.094,0.313c-0.271,0.421-0.555,0.834-0.834,1.251c-0.039,0.058-0.076,0.117-0.129,0.196
				c-0.193-0.665-0.363-1.301-0.561-1.93c-0.229-0.722-0.479-1.437-0.914-2.065c-0.157-0.229-0.36-0.425-0.578-0.675
				c-0.342,0.58-0.652,1.097-0.955,1.617c-0.197,0.339-0.38,0.688-0.581,1.026c-0.177,0.3-0.407,0.556-0.76,0.646
				c-0.427,0.108-0.778-0.062-1.013-0.399c-0.756-1.082-1.363-2.234-1.575-3.56c-0.01-0.056-0.029-0.112-0.044-0.166
				c0-0.159,0-0.32,0-0.48c0.012-0.025,0.033-0.051,0.034-0.078c0.052-0.536,0.345-0.928,0.751-1.256
				c0.596-0.48,1.274-0.811,1.98-1.087c0.367-0.143,0.742-0.262,1.113-0.392c0.005,0.018,0.012,0.035,0.02,0.052
				c-0.084,0.042-0.167,0.082-0.25,0.127c-0.562,0.316-1.138,0.615-1.684,0.959c-0.504,0.314-0.721,0.803-0.605,1.391
				c0.105,0.533,0.231,1.067,0.404,1.582c0.191,0.57,0.491,0.618,0.894,0.159c0.315-0.36,0.6-0.749,0.88-1.139
				c0.594-0.828,1.166-1.672,1.907-2.382c0.941-0.897,1.992-1.606,3.288-1.883c0.219-0.048,0.441-0.079,0.663-0.116
				c0.232,0,0.467,0,0.698,0c0.07,0.016,0.139,0.037,0.21,0.046c1.048,0.139,1.669,0.723,1.791,1.769
				c0.062,0.524,0.028,1.06,0.025,1.589c-0.004,0.229-0.038,0.456-0.06,0.702c3.547-2.4,7.089-2.485,10.667-0.096
				c-0.007-0.127-0.023-0.236-0.016-0.344c0.03-0.521,0.016-1.05,0.111-1.559c0.18-0.938,0.685-1.65,1.646-1.937
				c0.309-0.093,0.64-0.116,0.962-0.171c0.028,0,0.056,0,0.087,0c0.033,0.009,0.068,0.025,0.104,0.027
				c1.182,0.049,2.184,0.545,3.099,1.254c0.999,0.771,1.758,1.752,2.478,2.772c0.36,0.51,0.731,1.016,1.138,1.492
				c0.369,0.431,0.675,0.371,0.855-0.161c0.171-0.508,0.298-1.034,0.405-1.557c0.135-0.634-0.105-1.131-0.645-1.479
				c-0.326-0.212-0.665-0.41-1.007-0.602c-0.292-0.16-0.591-0.3-0.887-0.449c0.045-0.024,0.081-0.022,0.114-0.013
				c0.789,0.237,1.556,0.528,2.27,0.942c0.705,0.408,1.354,0.867,1.514,1.746C87.839,66.222,87.839,66.44,87.839,66.659z"/>
			<path fill="#F15A29" stroke="#FF6633" stroke-width="0.25" stroke-miterlimit="10" d="M70.636,81.576
				c-0.103,0.294-0.184,0.547-0.28,0.798c-0.448,1.172-1.102,2.197-2.148,2.927c-1.243,0.865-2.641,1.077-4.105,0.862
				c-1.763-0.257-2.904-1.302-3.505-2.938c-0.583-1.588-0.627-3.217-0.231-4.855c0.059-0.236,0.169-0.464,0.275-0.686
				c0.086-0.18,0.248-0.251,0.438-0.173c0.176,0.072,0.146,0.23,0.124,0.378c-0.165,1.13-0.228,2.261,0.032,3.386
				c0.245,1.055,0.738,1.943,1.718,2.491c0.734,0.41,1.537,0.522,2.362,0.483c1.82-0.085,3.004-1.074,3.753-2.666
				c0.502-1.064,0.733-2.202,0.861-3.364c0.023-0.218,0.019-0.439,0.06-0.652c0.051-0.26-0.027-0.445-0.197-0.648
				c-0.334-0.393-0.647-0.805-0.932-1.233c-0.117-0.178-0.17-0.418-0.188-0.636c-0.028-0.33,0.164-0.565,0.479-0.672
				c0.062-0.019,0.126-0.044,0.191-0.044c0.864-0.002,1.731-0.031,2.595,0.016c0.637,0.035,0.786,0.564,0.598,1.072
				c-0.115,0.311-0.338,0.59-0.535,0.863c-0.199,0.275-0.432,0.53-0.642,0.801c-0.05,0.062-0.088,0.154-0.085,0.229
				c0.077,1.47,0.3,2.911,0.927,4.259c0.492,1.063,1.201,1.936,2.325,2.37c1.198,0.466,2.414,0.438,3.598-0.058
				c1.122-0.472,1.687-1.404,1.94-2.553c0.243-1.097,0.177-2.198,0.023-3.301c-0.013-0.084-0.041-0.177-0.021-0.259
				c0.021-0.095,0.069-0.243,0.132-0.257c0.111-0.021,0.303,0.003,0.345,0.075c0.149,0.245,0.294,0.51,0.36,0.785
				c0.422,1.775,0.361,3.533-0.376,5.218c-0.753,1.719-2.121,2.565-3.981,2.635c-1.333,0.052-2.575-0.238-3.652-1.062
				c-0.994-0.758-1.612-1.78-2.035-2.938C70.782,82.029,70.719,81.823,70.636,81.576z"/>
			<path fill="#F15A29" stroke="#FF6633" stroke-width="0.25" stroke-miterlimit="10" d="M64.656,75.098
				c-0.782,0.013-1.414-0.614-1.424-1.403c-0.009-0.787,0.614-1.43,1.393-1.439c0.787-0.01,1.435,0.61,1.449,1.389
				C66.091,74.448,65.472,75.085,64.656,75.098z"/>
			<path fill="#F15A29" stroke="#FF6633" stroke-width="0.25" stroke-miterlimit="10" d="M76.641,75.097
				c-0.801,0.009-1.435-0.608-1.442-1.407c-0.009-0.785,0.616-1.426,1.397-1.437c0.79-0.008,1.438,0.625,1.447,1.413
				C78.051,74.448,77.423,75.087,76.641,75.097z"/>
			<path fill="#F15A29" stroke="#FF6633" stroke-width="0.25" stroke-miterlimit="10" d="M70.539,87.806
				c-1.188-0.049-2.009-0.601-2.587-1.539c-0.04-0.063-0.046-0.197-0.003-0.254c0.091-0.117,0.202-0.031,0.309,0.023
				c1.213,0.646,2.459,0.802,3.743,0.228c0.234-0.105,0.44-0.279,0.669-0.404c0.069-0.04,0.17-0.027,0.256-0.038
				c0.01,0.087,0.054,0.191,0.022,0.256c-0.405,0.814-0.986,1.435-1.909,1.654C70.857,87.772,70.667,87.787,70.539,87.806z"/>
			<path fill="#F15A29" stroke="#FF6633" stroke-width="0.25" stroke-miterlimit="10" d="M74.064,74.529
				c-2.251-1.393-4.492-1.388-6.711-0.035c0.397-0.848,1.511-1.527,2.86-1.614C71.778,72.78,73.159,73.13,74.064,74.529z"/>
			<path fill="#F15A29" stroke="#FF6633" stroke-width="0.25" stroke-miterlimit="10" d="M74.178,70.506
				c-0.386-0.028-0.82-0.2-1.134-0.609c-0.307-0.399-0.118-0.82,0.383-0.879c0.482-0.056,0.904,0.088,1.276,0.391
				c0.283,0.232,0.397,0.524,0.307,0.756C74.917,70.396,74.675,70.513,74.178,70.506z"/>
			<path fill="#F15A29" stroke="#FF6633" stroke-width="0.25" stroke-miterlimit="10" d="M66.962,70.512
				c-0.093-0.008-0.172-0.005-0.251-0.02c-0.462-0.088-0.619-0.479-0.348-0.863c0.305-0.436,1.027-0.716,1.549-0.601
				c0.456,0.1,0.604,0.496,0.311,0.877C67.903,70.316,67.46,70.489,66.962,70.512z"/>
			<path fill="#F15A29" stroke="#FF6633" stroke-width="0.25" stroke-miterlimit="10" d="M74.881,73.68
				c0.213,0.997,0.71,1.554,1.471,1.688c0.82,0.146,1.449-0.187,1.985-1.049c-0.068,0.799-0.964,1.49-1.83,1.412
				C75.464,75.639,74.777,74.793,74.881,73.68z"/>
			<path fill="#F15A29" stroke="#FF6633" stroke-width="0.25" stroke-miterlimit="10" d="M66.379,73.728
				c0.082,0.605-0.085,1.132-0.546,1.54c-0.533,0.476-1.158,0.598-1.825,0.344c-0.567-0.215-0.933-0.631-1.066-1.229
				c0.569,0.979,1.458,1.118,2.093,0.964C65.745,75.17,66.251,74.561,66.379,73.728z"/>
		</g>
	</g>
</g>
</svg>
