<?xml version="1.0" encoding="utf-8"?>
<!-- Generator: Adobe Illustrator 16.0.0, SVG Export Plug-In . SVG Version: 6.00 Build 0)  -->
<!DOCTYPE svg PUBLIC "-//W3C//DTD SVG 1.1//EN" "http://www.w3.org/Graphics/SVG/1.1/DTD/svg11.dtd">
<svg version="1.1" id="Layer_1" xmlns="http://www.w3.org/2000/svg" xmlns:xlink="http://www.w3.org/1999/xlink" x="0px" y="0px"
	 width="100px" height="100px" viewBox="0 0 100 100" enable-background="new 0 0 100 100" xml:space="preserve">
<g>
	<g>
		<path fill-rule="evenodd" clip-rule="evenodd" fill="#F15A29" d="M98.63,27.711c-0.402,1.393-0.66,2.853-1.246,4.167
			c-0.826,1.881-1.893,3.658-2.871,5.473c-0.129,0.244-0.32,0.468-0.514,0.674c-1.289,1.363-2.982,1.388-4.152-0.073
			c-0.754-0.939-1.291-2.048-1.914-3.087c-1.119-1.854-2.227-3.714-3.346-5.57c-0.088-0.152-0.209-0.292-0.334-0.467
			c-0.998,0.745-1.629,1.728-2.168,2.772c-1.357,2.628-2.137,5.457-2.912,8.287c-0.143,0.523-0.281,1.045-0.463,1.709
			c-0.375-0.609-0.666-1.125-0.998-1.613c-0.582-0.854-1.197-1.679-1.771-2.537c-0.135-0.201-0.262-0.491-0.225-0.713
			c0.646-3.76,1.982-7.174,5.02-9.698c0.477-0.395,1.021-0.711,1.658-1.151c-1.279-1.512-2.475-3.069-3.828-4.476
			c-1.004-1.042-2.168-1.946-3.35-2.787c-0.621-0.445-1.42-0.668-2.166-0.896c-1.225-0.376-2.127,0.163-2.793,1.172
			c-0.861,1.312-1.32,2.796-1.52,4.318c-0.328,2.506-0.51,5.03-0.748,7.547c-0.021,0.21-0.004,0.427-0.004,0.658
			c-0.992-0.697-1.891-1.416-2.869-2c-3.266-1.958-6.84-3.017-10.586-3.506c-5.242-0.682-10.388-0.249-15.391,1.529
			c-2.496,0.89-4.837,2.061-6.819,3.867c-0.056,0.049-0.131,0.078-0.24,0.142c-0.064-1.284-0.102-2.53-0.197-3.77
			c-0.185-2.448-0.477-4.876-1.328-7.2c-0.177-0.475-0.394-0.938-0.65-1.37c-0.849-1.414-1.813-1.77-3.393-1.296
			c-1.287,0.387-2.37,1.128-3.382,1.98c-1.968,1.653-4.658,4.819-6.184,7.257c0.61,0.409,1.252,0.783,1.83,1.236
			c2.135,1.677,3.358,3.967,4.207,6.478c0.34,1.009,0.551,2.064,0.753,3.114c0.053,0.267-0.101,0.622-0.262,0.872
			c-0.754,1.173-1.546,2.323-2.322,3.483c-0.11,0.159-0.211,0.325-0.358,0.548c-0.536-1.85-1.011-3.618-1.561-5.368
			c-0.632-2.011-1.334-4-2.542-5.753c-0.438-0.634-1.005-1.182-1.607-1.874c-0.954,1.613-1.817,3.051-2.66,4.499
			c-0.549,0.946-1.058,1.915-1.615,2.855c-0.493,0.838-1.133,1.548-2.116,1.801c-1.186,0.299-2.163-0.179-2.816-1.113
			c-2.102-3.011-3.795-6.216-4.386-9.904c-0.024-0.156-0.08-0.31-0.12-0.462c0-0.444,0-0.893,0-1.338
			c0.032-0.071,0.09-0.139,0.096-0.215c0.147-1.495,0.96-2.583,2.088-3.496c1.655-1.341,3.544-2.257,5.508-3.025
			c1.021-0.398,2.067-0.729,3.097-1.091c0.018,0.048,0.036,0.096,0.056,0.147c-0.23,0.116-0.462,0.227-0.691,0.354
			c-1.567,0.881-3.166,1.71-4.688,2.667c-1.398,0.876-2.003,2.233-1.683,3.868c0.294,1.483,0.643,2.971,1.125,4.401
			c0.531,1.589,1.365,1.724,2.484,0.442c0.878-1.001,1.669-2.084,2.448-3.167c1.652-2.304,3.242-4.653,5.308-6.625
			c2.619-2.5,5.541-4.472,9.147-5.239c0.609-0.133,1.229-0.22,1.844-0.325c0.65,0,1.298,0,1.944,0
			c0.196,0.043,0.389,0.104,0.586,0.128c2.915,0.386,4.644,2.009,4.985,4.922c0.172,1.457,0.077,2.947,0.068,4.42
			c-0.006,0.633-0.105,1.267-0.165,1.952c9.869-6.677,19.724-6.917,29.681-0.264c-0.02-0.356-0.064-0.661-0.045-0.958
			c0.084-1.45,0.045-2.922,0.311-4.339c0.498-2.61,1.904-4.591,4.574-5.387c0.861-0.258,1.785-0.323,2.678-0.475
			c0.082,0,0.16,0,0.244,0c0.096,0.025,0.191,0.071,0.289,0.075c3.291,0.139,6.076,1.518,8.627,3.493
			c2.777,2.146,4.889,4.874,6.891,7.713c1,1.42,2.033,2.828,3.162,4.15c1.025,1.199,1.877,1.034,2.379-0.447
			c0.48-1.411,0.828-2.875,1.135-4.334c0.371-1.76-0.297-3.145-1.791-4.113c-0.914-0.588-1.857-1.143-2.812-1.672
			c-0.805-0.448-1.641-0.837-2.465-1.252c0.127-0.066,0.229-0.063,0.32-0.034c2.193,0.661,4.328,1.471,6.316,2.625
			c1.957,1.135,3.762,2.411,4.209,4.859C98.63,26.495,98.63,27.102,98.63,27.711z"/>
		<path fill-rule="evenodd" clip-rule="evenodd" fill="#F15A29" d="M50.759,69.217c-0.285,0.819-0.508,1.526-0.776,2.22
			c-1.248,3.26-3.067,6.115-5.98,8.143c-3.461,2.41-7.347,2.998-11.426,2.405c-4.904-0.715-8.078-3.626-9.752-8.179
			c-1.623-4.417-1.745-8.95-0.644-13.509c0.161-0.661,0.469-1.291,0.764-1.908c0.24-0.502,0.691-0.697,1.22-0.482
			c0.486,0.2,0.404,0.643,0.343,1.051c-0.46,3.146-0.633,6.291,0.09,9.422c0.681,2.935,2.056,5.406,4.779,6.929
			c2.044,1.142,4.278,1.454,6.576,1.347c5.061-0.233,8.354-2.992,10.442-7.42c1.396-2.961,2.038-6.128,2.396-9.363
			c0.064-0.604,0.051-1.218,0.165-1.812c0.137-0.725-0.077-1.245-0.551-1.805c-0.927-1.092-1.8-2.238-2.589-3.433
			c-0.326-0.495-0.474-1.163-0.526-1.768c-0.077-0.916,0.46-1.574,1.337-1.865c0.172-0.057,0.352-0.125,0.529-0.125
			c2.409-0.004,4.819-0.089,7.224,0.042c1.768,0.097,2.188,1.569,1.662,2.981c-0.322,0.866-0.939,1.64-1.49,2.403
			c-0.555,0.772-1.201,1.475-1.785,2.229c-0.135,0.174-0.246,0.431-0.236,0.641c0.215,4.091,0.834,8.099,2.578,11.85
			c1.369,2.958,3.344,5.385,6.469,6.592c3.334,1.295,6.719,1.218,10.01-0.16c3.125-1.312,4.693-3.908,5.402-7.1
			c0.676-3.05,0.494-6.117,0.064-9.184c-0.035-0.236-0.115-0.495-0.062-0.718c0.061-0.266,0.199-0.679,0.371-0.715
			c0.307-0.061,0.838,0.006,0.959,0.207c0.414,0.684,0.816,1.418,1,2.186c1.178,4.939,1.006,9.829-1.045,14.516
			c-2.094,4.783-5.9,7.138-11.074,7.332c-3.711,0.139-7.168-0.664-10.168-2.954c-2.766-2.107-4.488-4.957-5.662-8.172
			C51.168,70.479,50.99,69.907,50.759,69.217z"/>
		<path fill-rule="evenodd" clip-rule="evenodd" fill="#F15A29" d="M34.124,51.191c-2.177,0.033-3.938-1.706-3.961-3.906
			c-0.024-2.188,1.708-3.976,3.875-4.005c2.19-0.026,3.99,1.699,4.031,3.864C38.113,49.388,36.392,51.154,34.124,51.191z"/>
		<path fill-rule="evenodd" clip-rule="evenodd" fill="#F15A29" d="M67.47,51.19c-2.232,0.023-3.994-1.693-4.016-3.917
			c-0.02-2.183,1.715-3.967,3.889-3.994c2.199-0.023,4.004,1.736,4.027,3.93C71.394,49.384,69.647,51.162,67.47,51.19z"/>
		<path fill-rule="evenodd" clip-rule="evenodd" fill="#F15A29" d="M50.491,86.552c-3.304-0.135-5.587-1.671-7.201-4.283
			c-0.108-0.178-0.123-0.553-0.008-0.704c0.256-0.329,0.567-0.089,0.859,0.063c3.375,1.795,6.845,2.234,10.418,0.63
			c0.654-0.293,1.229-0.774,1.861-1.123c0.195-0.11,0.475-0.075,0.715-0.104c0.025,0.241,0.15,0.532,0.061,0.712
			c-1.131,2.265-2.748,3.991-5.311,4.602C51.378,86.459,50.85,86.5,50.491,86.552z"/>
		<path fill-rule="evenodd" clip-rule="evenodd" fill="#F15A29" d="M60.3,49.611c-6.264-3.876-12.5-3.864-18.675-0.097
			c1.106-2.362,4.206-4.25,7.96-4.493C53.94,44.739,57.782,45.716,60.3,49.611z"/>
		<path fill-rule="evenodd" clip-rule="evenodd" fill="#F15A29" d="M60.616,38.414c-1.074-0.077-2.283-0.556-3.152-1.691
			c-0.855-1.11-0.336-2.283,1.064-2.447c1.34-0.156,2.516,0.245,3.549,1.085c0.789,0.649,1.104,1.462,0.854,2.102
			C62.675,38.108,61.999,38.433,60.616,38.414z"/>
		<path fill-rule="evenodd" clip-rule="evenodd" fill="#F15A29" d="M40.536,38.43c-0.257-0.018-0.479-0.013-0.699-0.054
			c-1.283-0.247-1.719-1.333-0.967-2.405c0.851-1.21,2.86-1.99,4.312-1.671c1.269,0.279,1.682,1.382,0.864,2.44
			C43.158,37.886,41.925,38.368,40.536,38.43z"/>
		<path fill-rule="evenodd" clip-rule="evenodd" fill="#F15A29" d="M62.571,47.245c0.596,2.775,1.975,4.326,4.094,4.699
			c2.281,0.403,4.029-0.519,5.525-2.92c-0.188,2.22-2.682,4.144-5.092,3.929C64.196,52.697,62.284,50.348,62.571,47.245z"/>
		<path fill-rule="evenodd" clip-rule="evenodd" fill="#F15A29" d="M38.915,47.381c0.229,1.681-0.237,3.146-1.516,4.285
			c-1.484,1.323-3.223,1.662-5.079,0.956c-1.581-0.599-2.595-1.757-2.965-3.424c1.584,2.73,4.054,3.115,5.819,2.684
			C37.151,51.393,38.562,49.696,38.915,47.381z"/>
	</g>
</g>
</svg>
